<svg xmlns="http://www.w3.org/2000/svg" xmlns:xlink="http://www.w3.org/1999/xlink" viewBox="282.24 228.97 488.2 567.99">
	<path d="M336.317 229.245C370.837 229.723 405.5 229.432 440.026 229.193C501.135 228.772 551.906 226.875 610.539 249.357C660.317 268.444 705.843 303.601 727.854 353.176C745.205 392.254 745.699 434.421 730.27 474.164C715.202 512.975 685.459 544.393 649.277 564.454C639.44 569.908 629.312 573.988 619.048 578.496C622.326 585.642 628.156 592.398 632.746 598.821L653.478 628.215L735.3 746.152L759.062 780.086C762.897 785.599 767.142 791.112 770.444 796.958C762.898 796.369 755.151 796.553 747.581 796.409Q721.266 795.947 694.948 796.001C667.467 795.966 639.74 795.074 612.286 795.953C587.706 757.317 560.939 720.023 535.202 682.151L515.07 652.047C510.798 645.649 506.566 638.001 500.994 632.681C497.438 629.286 491.046 627.625 486.243 627.685C480.331 627.759 474.434 630.127 470.358 634.453C467.033 637.982 465.407 642.191 464.788 646.929C463.78 654.651 464.297 662.533 464.363 670.297Q464.481 686.379 464.438 702.462L464.347 763.871C464.327 774.369 463.943 784.977 464.347 795.458C454.963 796.052 445.37 795.929 435.964 795.999L380.448 795.96C349.749 795.907 318.767 796.854 288.104 795.524C294.133 787.542 301.551 780.774 308.568 773.682L331.978 749.558C369.128 711.317 407.297 674.037 444.112 635.483Q434.273 626.248 424.81 616.627C416.163 625.853 406.842 634.516 397.887 643.448Q365.754 675.117 333.99 707.154C322.574 718.683 311.48 730.531 300.149 742.143C294.787 747.638 288.93 754.691 282.515 758.92C282.244 750.798 282.013 742.737 282.646 734.624C286.528 730.489 301.004 714.858 304.73 712.492C304.741 711.8 304.64 712.05 305.393 711.378C316.131 701.798 326.043 690.719 336.247 680.507C361.7 655.033 386.821 629.216 412.56 604.033C407.877 598.647 402.464 593.866 397.246 589.011C387.883 597.587 379.11 607.128 370.135 616.126L311.049 675.374C301.534 684.91 292.27 694.827 282.462 704.052Q283.097 691.648 282.667 679.235C291.431 669.424 301.416 660.397 310.742 651.088Q336.083 625.864 361.125 600.343C368.942 592.452 377.73 585.077 384.825 576.553C379.041 569.65 372.039 563.502 365.571 557.234C355.248 566.977 345.593 577.566 335.446 587.526C317.664 604.983 299.203 622.267 282.447 640.697C283.709 634.093 282.859 615.309 282.88 607.206L282.908 563.396C282.898 555.213 283.187 546.885 282.64 538.724C299.22 538.02 316.034 536.652 332.42 534.025C367.359 528.423 394.55 515.757 419.869 490.591C425.18 485.313 430.75 479.945 435.145 473.866C420.868 459.356 406.915 444.489 392.23 430.389Q388.013 430.709 383.803 431.114C385.333 436.093 388.129 442.644 386.687 447.824C384.517 455.623 370.73 468.734 363.844 472.748C360.815 474.513 356.204 476.067 352.69 474.998C346.411 473.089 307.388 433.155 303.716 426.064C302.252 423.236 302.63 420.47 303.662 417.549C307.017 408.05 324.276 392.411 333.228 387.939C337.574 388.608 341.022 389.815 345.018 391.567C345.038 389.408 344.913 387.179 345.199 385.036C345.683 381.407 347.689 377.918 349.892 375.061C357.04 365.789 366.864 358.03 375.216 349.832C385.018 340.211 394.066 329.587 405.028 321.209C423.599 307.016 446.451 304.601 469.06 307.649C474.758 308.417 485.827 309.852 489.43 314.994C490.385 316.356 490.816 318.021 490.509 319.664C488.436 330.768 456.086 339.505 446.65 346.004C440.179 350.461 434.936 356.769 433.631 364.726C432.633 370.813 434.074 376.867 437.126 382.157C443.339 392.925 453.844 401.888 462.666 410.557Q482.203 429.931 501.29 449.749C508.051 456.754 515.915 463.858 521.502 471.82C533.224 464.966 544.253 457.89 553.877 448.158C574.093 427.712 588.372 399.248 588.015 370.042C587.755 348.7 580.146 330.883 564.761 316.072C549.871 301.737 528.738 293.737 508.751 289.785C491.972 286.467 474.713 286.384 457.673 286.205L407.995 286.049C369.201 286.042 330.283 285.442 291.505 286.247C290.8 279.377 291.03 272.323 291.032 265.419Q291.011 247.413 291.586 229.416C306.403 229.754 321.505 229.717 336.317 229.245ZM443.996 459.209C456.418 472.261 574.427 592.622 576.801 592.989C583.838 586.296 590.668 579.327 597.876 572.822L520.217 494.758Q500.128 474.058 479.613 453.78C476.11 450.261 468.516 441.508 464.947 439.351C457.971 445.833 451.462 453.365 443.996 459.209ZM453.281 426.891C449.663 422.89 437.567 408.601 433.38 407.356L413.719 427.008C416.669 430.043 430.422 444.939 433.345 446.045C440.025 439.938 447.216 433.593 453.281 426.891ZM336.51 406.742C331.398 411.4 326.868 416.809 321.991 421.73C330.206 429.507 337.829 437.956 345.791 446.001C348.878 449.12 352.092 452.919 355.622 455.514L356.445 455.99C360.259 454.493 364.949 448.361 367.87 445.239C362.063 419.698 357.313 420.49 336.51 406.742ZM403.65 348.374Q392.035 359.741 380.198 370.877C374.377 376.393 368.288 381.869 363.018 387.926C363.719 395.008 363.739 405.078 369.805 409.854C373.251 412.568 376.945 412.639 381.125 412.479C395.33 412.272 408.076 409.177 418.159 398.722Q419.57 397.252 420.894 395.703C413.315 381.52 410.856 365.183 405.03 350.38C404.682 349.495 404.427 348.965 403.65 348.374Z"/>
</svg>